<svg id="Capa_1" data-name="Capa 1" xmlns="http://www.w3.org/2000/svg" viewBox="0 0 57.96 266.26"><path d="M37.26,76c-2.29,0-4.54,0-6.79,0a2.65,2.65,0,0,1-3-2.55c-.23-3.29-.58-6.56-.81-9.85a28.11,28.11,0,0,0-1.17-7.73,2.61,2.61,0,0,1-.06-.27,11.64,11.64,0,0,0-.62-3.77c-.19-.39.07-1,.13-1.58a1.87,1.87,0,0,1-.16-2.52c-1-.53-1-1.41-.9-2.36a6.32,6.32,0,0,0-.2-1,7.51,7.51,0,0,1-.08-2c.08-.47.34-.71-.15-1.22a1.5,1.5,0,0,1,0-2.16,2.63,2.63,0,0,1-.14-3.07c-1.1-.92-.79-2-.4-3.14a2.17,2.17,0,0,0,0-.84,12.31,12.31,0,0,1-.28-2.14,9.66,9.66,0,0,1,2.69-6.26,54,54,0,0,1,5-4.66,10.81,10.81,0,0,1,8.34-2.21,38.4,38.4,0,0,1,10.69,2.68A8.09,8.09,0,0,1,54,24.45s0,.06,0,.08c-.39,1.36.7,2.39.8,3.59.1,1.36.65,2.59.82,3.91a7.43,7.43,0,0,1-.06,1.27,2.44,2.44,0,0,1,.51,2.93c.18.36.48.68.5,1,0,1.26.51,2.46.55,3.7s.48,2.46.4,3.79a9.41,9.41,0,0,0,.22,2.9,13.24,13.24,0,0,1-.45,8.06c-.83,2.52-.56,5-.61,7.47,0,1.43.09,2.86.14,4.29.06,1.86.16,3.72.18,5.58,0,2.08-.67,2.8-2.74,2.89s-4.44.14-6.61.2c0,1.48.07,2.87,0,4.25-.07,1-.35,2.07-.51,3.11a7.78,7.78,0,0,0-.06,1.18V247.21c0,3.17,0,6.35,0,9.52a1.22,1.22,0,0,0,.53,1.12,2.34,2.34,0,0,1,.79,1.5c.09,1.79,0,3.59,0,5.48,1.05.3,2.1.57,3.14.9q8,2.56,15.89,5.17c.8.26,1.57.66,2.36,1,2,.79,2.27,1.7,2.15,4.27a2.94,2.94,0,0,1-2,2.63,30.73,30.73,0,0,1-9,2.69,111.46,111.46,0,0,1-35,0,77.05,77.05,0,0,1-8.4-2.12,6.29,6.29,0,0,1-1-.41c-2.44-1.16-2.92-2-2.37-4.69a1.71,1.71,0,0,1,.92-.93c3.2-1.55,6.37-3.17,9.64-4.53,3.62-1.51,7.34-2.79,11-4.11.7-.25,1-.55.9-1.29a21.19,21.19,0,0,1,0-3.38,8.37,8.37,0,0,1,.64-1.86,4.93,4.93,0,0,0,.47-1.47q0-84.75,0-169.5c0-.36,0-.73,0-1.1-.06-1,.25-2.11-.44-3.06a1.13,1.13,0,0,1-.1-.62ZM26.41,43.8A6.7,6.7,0,0,0,26.26,45q.4,6.15.83,12.3c.26,3.86.52,7.72.82,11.58.13,1.66.36,3.32.57,5a1.08,1.08,0,0,0,1.42,1.07A35.29,35.29,0,0,1,34,74.53c2.53,0,5.06,0,7.59,0,4.33,0,8.66,0,13,.07,1.65,0,1.74.07,1.69-1.58-.11-3.78-.26-7.56-.41-11.34,0-.9-.12-1.79-.18-2.69l-.29-.11c-.29.59-.82,1.18-.82,1.77,0,3.32.11,6.64.18,10,0,.71,0,1.42,0,2.11-.57.06-1,.15-1.51.15q-8.82.1-17.65.18c-1.63,0-2.36-.6-2.54-2.24-.28-2.57-.46-5.15-.71-7.73q-.93-9.36-1.9-18.73c-.11-1.1-.29-2.21-.51-3.3a1,1,0,0,0-1.19-.9,2.1,2.1,0,0,0-1.92,1.45c-.18.73-.29,1.49-.43,2.23Zm9.36-2.62c1.08,0,.43,1,.85,1.41,1.15-.1.15-1.31.94-1.77L37.83,42c3.78-.37,8.71.4,9.77,1.69a6.56,6.56,0,0,1-1.37.33,16.85,16.85,0,0,1-1.72-.22c-2.6-.23-5.21-.72-7.75.35-1.16.48-2.3,1-3.45,1.51l.15.34,3.2-1.42L36.74,46c.86,0,.57-.53.63-.93a4.61,4.61,0,0,1,.27-.79l.28.11L38,45.6a15.39,15.39,0,0,1,2.2-.35c.94,0,1.89.1,2.83.16,1.16.07,2.32.11,3.47.2.55,0,1.28,0,1.16.87s-.76.48-1.22.5a1.55,1.55,0,0,1-.37,0c-4-.46-7.84-.35-11.42,1.72a11.64,11.64,0,0,1-1.48.57c1.6.41,2.58-.72,3.89-1.06,0,.71,0,1.32,0,1.91s.47,1.3,1.21,1.27.88-.74,1-1.36a5.93,5.93,0,0,0,0-1.19c0-.44-.11-.87-.21-1.58.39.25.69.35.7.47A17.9,17.9,0,0,1,40,51.93c-.31,2.08-2,3.21-3.77,4s-2.3.63-2.61-1.37c-.4-2.46-.62-4.94-.93-7.42,0-.39,0-1-.26-1.13-.49-.37-.31-.68-.17-1.09a1.66,1.66,0,0,0-.76-2.13c.1.73.21,1.45.29,2.17.37,3.29.69,6.59,1.11,9.87.12,1,.16,2.15,1.3,2.53,1.5.5,3,.83,4.59,1.18a1.07,1.07,0,0,0,.85-.33,12.81,12.81,0,0,0,3-6.37c0-.3.43-.54.66-.81.26.26.68.49.73.78a4.11,4.11,0,0,1-.09,1.71,10.74,10.74,0,0,1-5.44,7,3,3,0,0,0,.74-.14c1.15-.33,1.79-1.69,3.18-1.56.09,0,.22-.19.32-.31a13.47,13.47,0,0,0,2.74-5.31c.11-.45.1-.92.24-1.35.08-.25.37-.62.54-.6a1,1,0,0,1,.71.53A3.29,3.29,0,0,1,47,53.27a10.51,10.51,0,0,1-5.71,7.52,3.63,3.63,0,0,0,1.13-.3c.91-.47,1.47-1.61,2.73-1.4.06,0,.15-.09.21-.16A9.2,9.2,0,0,0,48,55c.25-.94.42-1.91.72-2.84.09-.3.48-.51.73-.76.2.3.58.61.57.9-.12,2.13-.42,4.22-2.12,5.76-1.11,1-2.28,1.91-3.45,2.88a1.77,1.77,0,0,0,.71-.12c.51-.32,1-.73,1.46-1.07.28-.21.62-.53.91-.51,1,.07,1.48-.56,2-1.21A14.76,14.76,0,0,0,52,52.85a12.83,12.83,0,0,1,.63-1.33c.26.54.5.81.49,1.06a7.91,7.91,0,0,1-.29,2.29c-1,2.74-2.62,5-5.54,6a1.93,1.93,0,0,0,1-.09,27.74,27.74,0,0,0,3.32-2.32,8.87,8.87,0,0,0,2.75-5.06,6.29,6.29,0,0,1,.42-1.09c1.1,1.41.64,2.8,0,4a24.49,24.49,0,0,1-2.48,3.34c.36-.26.76-.76,1.2-.79,1.52-.1,2-1.21,2.48-2.33A16.09,16.09,0,0,0,57,49c0-.23-.36-.52-.62-.64-.78-.34-1.6-.58-2.38-.92-.19-.08-.46-.46-.4-.59a1,1,0,0,1,.62-.53,3,3,0,0,1,1.07.12c.49.11,1,.26,1.47.4.18-.73-.07-1.1-.65-1.29s-1.46-.46-2.15-.78c-.3-.14-.48-.52-.72-.79.35-.16.72-.48,1.06-.45A14.14,14.14,0,0,1,56.4,44a.93.93,0,0,0-.68-1.29,19,19,0,0,1-2.22-.81c-.27-.12-.42-.49-.62-.74a3.72,3.72,0,0,1,.83-.4,2.23,2.23,0,0,1,.8.1c.52.1,1,.22,1.56.34a.85.85,0,0,0-.6-1.21c-.84-.28-1.68-.56-2.49-.92-.26-.12-.4-.49-.59-.75.29-.17.59-.46.89-.46a7.29,7.29,0,0,1,1.51.28l.82.19.21-.34c-.3-.28-.56-.68-.93-.84-.82-.38-1.71-.61-2.55-1-.21-.09-.48-.48-.43-.66a.87.87,0,0,1,.63-.51,2.88,2.88,0,0,1,1.08.12c.49.1,1,.24,1.5.38.06-.95-.18-1.53-1.06-1.77A16.43,16.43,0,0,1,51.83,33c-.21-.1-.49-.48-.45-.66a.91.91,0,0,1,.65-.51,2.87,2.87,0,0,1,1.08.1c.48.1,1,.24,1.5.37,0-.9-.19-1.43-1-1.66a12.44,12.44,0,0,1-2.14-.78c-.32-.16-.53-.55-.79-.84.39-.16.78-.48,1.15-.45a11.38,11.38,0,0,1,2,.45c.2-1.36.08-1.57-1.09-2a21.93,21.93,0,0,1-2.22-.83c-.31-.15-.49-.56-.73-.85.36-.16.73-.47,1.07-.44a17,17,0,0,1,2.37.56L51.67,22l-.54,1.28a9.45,9.45,0,0,1-.91-1c-.27-.4-.4-.9-.67-1.29a7.25,7.25,0,0,0-.91-.93,6,6,0,0,0,.07,1.2,3.58,3.58,0,0,1-.33,1,4.16,4.16,0,0,1-.88-.78A10.61,10.61,0,0,1,47,20.23c-.33-.68-.77-1.24-1.58-1.15a12.14,12.14,0,0,1,.35,1.8c0,.24-.31.5-.48.75a3.33,3.33,0,0,1-.73-.66c-.49-.78-.89-1.62-1.4-2.38-.16-.23-.57-.29-1-.46a12.2,12.2,0,0,1,.6,1.9c0,.32-.26.67-.41,1a9,9,0,0,1-.7-.68c-.66-.82-1.27-1.68-2-2.48-.16-.18-.54-.16-.8-.23a13.37,13.37,0,0,1,.91,2.18c.07.28-.33.68-.52,1a4.41,4.41,0,0,1-.77-.72,15.57,15.57,0,0,0-.95-1.64c-.35-.4-.92-.87-1.37-.84a8.41,8.41,0,0,0-4.92,1.5c-1.79,1.41-3.43,3-5.12,4.54a4.83,4.83,0,0,0-.54.72l.25.21,2.38-2.77c0,1,0,1.83,0,2.6.2,2.71.36,5.42.7,8.1.4,3.22.59,6.51,2.4,9.42.78-.61.46-1.36,0-1.85a4.2,4.2,0,0,1-.94-2.3c-.18-1-.36-1.91-.52-2.87-.2-1.19-.38-2.38-.53-3.3l5.75-3.23.47,1.06L36.31,28l.24.68,8.23,1a1.33,1.33,0,0,1,1.31,1.26,5.53,5.53,0,0,1-1.31.26c-2.28-.11-4.56-.31-6.85-.42a4.73,4.73,0,0,0-3.53,1.3l1.07-.37.52.72.63-1.12.37.86a1.19,1.19,0,0,1,.44-.09c2.77.4,5.54.8,8.31,1.25.22,0,.37.46.56.7-.27.14-.55.42-.81.4-1.73-.09-3.46-.25-5.2-.37A12.32,12.32,0,0,0,31,37.52l4.71-2.63.22,1,.24.08L37,34.55l.22.12.14.73c.88,0,1.7,0,2.5.13,2.08.29,4.15.6,6.21,1,.32.06.56.54.84.82-.35.15-.71.44-1.06.43a37.57,37.57,0,0,1-4.74-.4c-3.39-.61-6.14.88-8.84,2.57L36,38.33l-.2.32a2.25,2.25,0,0,0,.68.3c.11,0,.25-.26.36-.42s.24-.42.36-.62l.64.56A7.92,7.92,0,0,1,39,38.4q2.82.24,5.63.54a11.57,11.57,0,0,1,2,.42c.22.07.54.43.5.55a1.23,1.23,0,0,1-.59.6,1.55,1.55,0,0,1-.71,0c-1.43-.15-2.85-.36-4.28-.43a9.27,9.27,0,0,0-5.71,1.12L32.4,42.67l.17.34Zm6.95,41.47V259.71l2.29-.13c.72,0,1-.36,1-1.1,0-3.72,0-7.44,0-11.16V83.25ZM70,273.46c-1.28,1-2.44,1.33-3.84.42a34.91,34.91,0,0,0-3.35-1.68,98.36,98.36,0,0,0-14-6,1.46,1.46,0,0,0-.84-.11c-1,.29-2,.72-3.07,1a1.23,1.23,0,0,0-1.08.9c-.83,2.82-1.71,5.64-2.54,8.46-.2.7-.49.93-1.27.42L43,268a3.75,3.75,0,0,0-.77,1.15c-.85,2-1.64,4-2.54,5.95-1.1,2.39-1.14,2.29-3.77,2.13A113.34,113.34,0,0,1,21,275c-1.43-.27-2.83-.68-4.24-1v-.29c6.39-3.47,13.23-5.89,20.08-8.31-6.29,1.59-19.74,7.1-21.4,8.75,11.68,3.46,23.54,4.3,35.56,3.62l-6.29.39a22.16,22.16,0,0,0-.1,2.38c.06.88-.28,1.17-1.11,1a1.71,1.71,0,0,0-.55-.05c-.76.09-.94-.33-.92-1s0-1.55,0-2.32H41c0,.59,0,1.13,0,1.68s.07,1.13.11,1.74h-1.2c0-.82-.08-1.58-.12-2.34-.08-1.33-.21-1.43-1.64-1.13v3.34a61.1,61.1,0,0,1-13.35-1.19,27.93,27.93,0,0,1-8.27-2.73,1.43,1.43,0,0,1-.88-1.5,10.37,10.37,0,0,0-.19-1.9c-1,2.29-.61,3.18,1.42,4.14l.5.22c4.3,1.77,8.86,2.41,13.43,2.94a101.81,101.81,0,0,0,17.63.35,78.43,78.43,0,0,0,15.57-2,56.83,56.83,0,0,0,6.22-2.32,1.12,1.12,0,0,0,.73-1.31c-.08-.76-.08-1.52-.18-2.28a1.06,1.06,0,0,0-.41-.74c-.88-.39-1.81-.7-2.71-1l0,.15ZM33.26,63.14c.2,2.68.39,5.2.58,7.72a1.26,1.26,0,0,0,1.29,1.26,22.63,22.63,0,0,0,2.46.19c4.23,0,8.47-.14,12.71-.22.23,0,.47-.06.81-.1-.13-3.33-.25-6.62-.38-10.09C45,64.18,39.22,64.08,33.26,63.14ZM39,259h.12V83.52H39Zm-1.28,4.47h.08c.06-.84.07-1.69.2-2.52,0-.26.41-.72.57-.69,1.69.28,3.38.64,5.16,1v5a8.67,8.67,0,0,0,.9,0c.48-.05,1-.1,1.45-.19a1.85,1.85,0,0,0,1.65-2c0-1,0-2,0-3,0-.78,0-1.55,0-2.33l-.3-.07c-.35,1.56-1.64,1.71-2.81,1.76a28.94,28.94,0,0,1-4.36-.28,17.36,17.36,0,0,1-2.5-.64ZM43.05,81.89a23.31,23.31,0,0,1,2.51.57c.88.32,1-.06,1-.79,0-1.79.08-3.58.06-5.37a1.07,1.07,0,0,0-.62-.8c-.94-.19-1.9-.25-3-.36ZM24.75,30c.78-1.8,1.53-3.56,2.29-5.31l-.31-.17c-1.48.84-1.92,2.39-2.39,3.89C24.18,29,24,29.58,24.75,30Zm14.86,231.3c0,1.45,0,2.82,0,4.18,0,.23.42.43.72.72,0-1.52,0-2.79,0-4.07C40.4,261.5,40.13,261.29,39.61,261.34ZM52,61.61H51.9V72.29h.36ZM38.6,82.74v-6h-.38c0,1.86,0,3.73,0,5.59C38.19,82.45,38.47,82.6,38.6,82.74Zm-14-56.85c-1.09,1.46-1.08,3.25-1.25,5.21Zm.68,8.6c-.3.4-.64.85-1,1.3s-.58.89-.86,1.33l.27.14C24,36.15,25.6,35.82,25.3,34.49Zm.7,6.08-.26-.2-1.36,2.19.25.15Z" transform="translate(-14.01 -16.57)"/><path d="M37.54,22.28c2.72.61,5.72.31,8.21,1.94l0,.45a4.65,4.65,0,0,1-1.34.25c-1.6-.2-3.18-.53-4.78-.75-3.09-.41-5.71.78-8.16,2.51-.54.38-1.08.79-1.66,1.12s-1,.26-1-.55a39.05,39.05,0,0,1,.05-4.19,3.81,3.81,0,0,1,1-2.11,8.86,8.86,0,0,1,5.28-2.83A1.5,1.5,0,0,1,37,19.37C37.27,20.3,37.37,21.26,37.54,22.28Zm-.59.13a16.16,16.16,0,0,0-.5-1.92.87.87,0,0,0-.63-.51.91.91,0,0,0-.69.48,19.49,19.49,0,0,0-.27,2.17l.44.08.31-1.63h.23L36,22.41Z" transform="translate(-14.01 -16.57)"/><path d="M29,28.61l6-3.67L35.23,26l.27.09L36,24.67l.37,1.09c2.78-.34,5.4.42,8.06.9a2.28,2.28,0,0,1,1.06.48.93.93,0,0,1,.22.82c0,.16-.47.35-.69.31-1.36-.2-2.71-.44-4-.7a10.42,10.42,0,0,0-8.24,1.77c-.75.53-1.5,1.06-2.28,1.51s-1.18.22-1.25-.67C29.13,29.56,29.05,28.93,29,28.61Z" transform="translate(-14.01 -16.57)"/><path d="M38.17,50.3c-.14-.32-.41-.64-.41-1,0-.5-.48-1.13.3-1.66.11.91.2,1.69.28,2.46Z" transform="translate(-14.01 -16.57)"/><path d="M61.11,276.9,70.29,274c.78,2.33.24,3.46-2.21,4.13v-2.74L61.16,277Z" transform="translate(-14.01 -16.57)"/><path d="M26.38,43.83A10.34,10.34,0,0,1,27,41.88a2.33,2.33,0,0,1,1.13-1,.87.87,0,0,1,1.24.81c.29,1.92.63,3.83.88,5.75.27,2.11.49,4.23.69,6.35.18,1.88.34,3.76.45,5.65.26,4.26.47,8.52.71,12.78,0,.57.19,1.13.29,1.75-.94.08-1.85.2-2.75.19a1.08,1.08,0,0,1-.8-.59,7,7,0,0,1-.38-1.87c-.3-4-.61-8.08-.83-12.12a6.63,6.63,0,0,1,.54-2.36c.57-1.63,1.34-3.21,1.77-4.87A14.12,14.12,0,0,0,30,49l-.32,0-2.17,6.66-.28,0a13.9,13.9,0,0,1,.26-2.43c.59-2,1.31-4,1.93-6.08a20.21,20.21,0,0,0,.44-2.19l-.43-.12-2.31,7-.15,0c-.19-2.68-.37-5.35-.56-8Z" transform="translate(-14.01 -16.57)"/></svg>